<svg xmlns="http://www.w3.org/2000/svg" style="display: none;"><defs><symbol id="potato-warning" viewBox="0 0 24 24" fill="none"><title>걱정하는 감자</title><ellipse cx="12" cy="13" rx="7" ry="8" fill="currentColor" opacity="0.8" stroke="currentColor" stroke-width="1.5"/><circle cx="8" cy="10" r="0.8" fill="currentColor" opacity="0.3"/><circle cx="16" cy="11" r="0.6" fill="currentColor" opacity="0.3"/><circle cx="10" cy="18" r="0.7" fill="currentColor" opacity="0.3"/><path d="M8 9 L10.5 9.5" stroke="currentColor" stroke-width="1.2" stroke-linecap="round"/><path d="M16 9 L13.5 9.5" stroke="currentColor" stroke-width="1.2" stroke-linecap="round"/><circle cx="9.5" cy="11" r="1.2" fill="white"/><circle cx="14.5" cy="11" r="1.2" fill="white"/><circle cx="9.5" cy="11" r="0.6" fill="currentColor"/><circle cx="14.5" cy="11" r="0.6" fill="currentColor"/><path d="M10.5 15.5 Q12 14.5 13.5 15.5" stroke="currentColor" stroke-width="1.5" fill="none" stroke-linecap="round"/></symbol><symbol id="potato-info" viewBox="0 0 24 24" fill="none"><title>궁금한 감자</title><ellipse cx="12" cy="13" rx="7" ry="8" fill="currentColor" opacity="0.8" stroke="currentColor" stroke-width="1.5"/><circle cx="8" cy="10" r="0.8" fill="currentColor" opacity="0.3"/><circle cx="16" cy="11" r="0.6" fill="currentColor" opacity="0.3"/><circle cx="10" cy="18" r="0.7" fill="currentColor" opacity="0.3"/><circle cx="9.5" cy="10.5" r="1.2" fill="white"/><circle cx="14.5" cy="10.5" r="1.2" fill="white"/><circle cx="9.5" cy="10.5" r="0.7" fill="currentColor"/><circle cx="14.5" cy="10.5" r="0.7" fill="currentColor"/><path d="M10.5 15 Q12 15.5 13.5 15" stroke="currentColor" stroke-width="1.5" fill="none" stroke-linecap="round"/></symbol><symbol id="potato-error" viewBox="0 0 24 24" fill="none"><title>당황한 감자</title><ellipse cx="12" cy="13" rx="7" ry="8" fill="currentColor" opacity="0.8" stroke="currentColor" stroke-width="1.5"/><circle cx="8" cy="10" r="0.8" fill="currentColor" opacity="0.3"/><circle cx="16" cy="11" r="0.6" fill="currentColor" opacity="0.3"/><circle cx="10" cy="18" r="0.7" fill="currentColor" opacity="0.3"/><circle cx="9.5" cy="10.5" r="1.5" fill="white" stroke="currentColor" stroke-width="0.5"/><circle cx="14.5" cy="10.5" r="1.5" fill="white" stroke="currentColor" stroke-width="0.5"/><circle cx="9.5" cy="10.5" r="0.8" fill="currentColor"/><circle cx="14.5" cy="10.5" r="0.8" fill="currentColor"/><ellipse cx="12" cy="15.5" rx="1.5" ry="2" fill="none" stroke="currentColor" stroke-width="1.5"/></symbol><symbol id="potato-loading" viewBox="0 0 24 24" fill="none"><title>로딩중인 감자</title><ellipse cx="12" cy="13" rx="7" ry="8" fill="currentColor" opacity="0.8" stroke="currentColor" stroke-width="1.5"/><circle cx="8" cy="10" r="0.8" fill="currentColor" opacity="0.3"/><circle cx="16" cy="11" r="0.6" fill="currentColor" opacity="0.3"/><circle cx="10" cy="18" r="0.7" fill="currentColor" opacity="0.3"/><path d="M8 10.5 L11 10.5" stroke="currentColor" stroke-width="1.5" stroke-linecap="round"/><path d="M13 10.5 L16 10.5" stroke="currentColor" stroke-width="1.5" stroke-linecap="round"/><circle cx="12" cy="15" r="1" fill="none" stroke="currentColor" stroke-width="1.2"/></symbol><symbol id="rabbit-warning" viewBox="0 0 24 24" fill="none"><title>조심스러운 토끼</title><ellipse cx="8.5" cy="5" rx="1.5" ry="4" fill="currentColor" opacity="0.6" stroke="currentColor" stroke-width="1" transform="rotate(-10 8.5 5)"/><ellipse cx="15.5" cy="5" rx="1.5" ry="4" fill="currentColor" opacity="0.6" stroke="currentColor" stroke-width="1" transform="rotate(10 15.5 5)"/><ellipse cx="8.5" cy="5" rx="0.8" ry="2.5" fill="currentColor" opacity="0.3" transform="rotate(-10 8.5 5)"/><ellipse cx="15.5" cy="5" rx="0.8" ry="2.5" fill="currentColor" opacity="0.3" transform="rotate(10 15.5 5)"/><circle cx="12" cy="14" r="6.5" fill="currentColor" opacity="0.8" stroke="currentColor" stroke-width="1"/><path d="M8 10.5 L10.5 11" stroke="currentColor" stroke-width="1.2" stroke-linecap="round"/><path d="M16 10.5 L13.5 11" stroke="currentColor" stroke-width="1.2" stroke-linecap="round"/><circle cx="9.5" cy="12" r="1.2" fill="white"/><circle cx="14.5" cy="12" r="1.2" fill="white"/><circle cx="9.5" cy="12" r="0.6" fill="currentColor"/><circle cx="14.5" cy="12" r="0.6" fill="currentColor"/><path d="M12 14.5 L11.5 15.5 M12 14.5 L12.5 15.5" stroke="currentColor" stroke-width="1.2" stroke-linecap="round"/><path d="M10.5 16.5 Q12 15.5 13.5 16.5" stroke="currentColor" stroke-width="1.5" fill="none" stroke-linecap="round"/></symbol><symbol id="rabbit-info" viewBox="0 0 24 24" fill="none"><title>호기심 많은 토끼</title><ellipse cx="9" cy="4.5" rx="1.5" ry="4" fill="currentColor" opacity="0.6" stroke="currentColor" stroke-width="1"/><ellipse cx="15" cy="5.5" rx="1.5" ry="4" fill="currentColor" opacity="0.6" stroke="currentColor" stroke-width="1" transform="rotate(20 15 5.5)"/><ellipse cx="9" cy="4.5" rx="0.8" ry="2.5" fill="currentColor" opacity="0.3"/><ellipse cx="15" cy="5.5" rx="0.8" ry="2.5" fill="currentColor" opacity="0.3" transform="rotate(20 15 5.5)"/><circle cx="12" cy="14" r="6.5" fill="currentColor" opacity="0.8" stroke="currentColor" stroke-width="1"/><circle cx="9.5" cy="11.5" r="1.3" fill="white"/><circle cx="14.5" cy="11.5" r="1.3" fill="white"/><circle cx="9.5" cy="11.5" r="0.8" fill="currentColor"/><circle cx="14.5" cy="11.5" r="0.8" fill="currentColor"/><path d="M12 14.5 L11.5 15.5 M12 14.5 L12.5 15.5" stroke="currentColor" stroke-width="1.2" stroke-linecap="round"/><path d="M10.5 16 Q12 16.5 13.5 16" stroke="currentColor" stroke-width="1.5" fill="none" stroke-linecap="round"/></symbol><symbol id="rabbit-error" viewBox="0 0 24 24" fill="none"><title>놀란 토끼</title><ellipse cx="8" cy="7" rx="1.5" ry="4" fill="currentColor" opacity="0.6" stroke="currentColor" stroke-width="1" transform="rotate(-45 8 7)"/><ellipse cx="16" cy="7" rx="1.5" ry="4" fill="currentColor" opacity="0.6" stroke="currentColor" stroke-width="1" transform="rotate(45 16 7)"/><ellipse cx="8" cy="7" rx="0.8" ry="2.5" fill="currentColor" opacity="0.3" transform="rotate(-45 8 7)"/><ellipse cx="16" cy="7" rx="0.8" ry="2.5" fill="currentColor" opacity="0.3" transform="rotate(45 16 7)"/><circle cx="12" cy="14" r="6.5" fill="currentColor" opacity="0.8" stroke="currentColor" stroke-width="1"/><circle cx="9.5" cy="11.5" r="1.5" fill="white" stroke="currentColor" stroke-width="0.5"/><circle cx="14.5" cy="11.5" r="1.5" fill="white" stroke="currentColor" stroke-width="0.5"/><circle cx="9.5" cy="11.5" r="0.8" fill="currentColor"/><circle cx="14.5" cy="11.5" r="0.8" fill="currentColor"/><path d="M12 14.5 L11.5 15.5 M12 14.5 L12.5 15.5" stroke="currentColor" stroke-width="1.2" stroke-linecap="round"/><ellipse cx="12" cy="16.5" rx="1.2" ry="1.8" fill="none" stroke="currentColor" stroke-width="1.5"/></symbol><symbol id="rabbit-loading" viewBox="0 0 24 24" fill="none"><title>졸린 토끼</title><ellipse cx="9" cy="6" rx="1.5" ry="4" fill="currentColor" opacity="0.6" stroke="currentColor" stroke-width="1" transform="rotate(-20 9 6)"/><ellipse cx="15" cy="6" rx="1.5" ry="4" fill="currentColor" opacity="0.6" stroke="currentColor" stroke-width="1" transform="rotate(20 15 6)"/><ellipse cx="9" cy="6" rx="0.8" ry="2.5" fill="currentColor" opacity="0.3" transform="rotate(-20 9 6)"/><ellipse cx="15" cy="6" rx="0.8" ry="2.5" fill="currentColor" opacity="0.3" transform="rotate(20 15 6)"/><circle cx="12" cy="14" r="6.5" fill="currentColor" opacity="0.8" stroke="currentColor" stroke-width="1"/><path d="M8 11.5 L11 11.5" stroke="currentColor" stroke-width="1.5" stroke-linecap="round"/><path d="M13 11.5 L16 11.5" stroke="currentColor" stroke-width="1.5" stroke-linecap="round"/><path d="M12 14.5 L11.5 15.5 M12 14.5 L12.5 15.5" stroke="currentColor" stroke-width="1.2" stroke-linecap="round"/><circle cx="12" cy="16" r="0.8" fill="none" stroke="currentColor" stroke-width="1.2"/></symbol><symbol viewBox="0 0 48 48" fill="none"><title>거래 내역 없음</title><rect x="12" y="18" width="24" height="16" rx="2" fill="currentColor" opacity="0.1" stroke="currentColor" stroke-width="2"/><circle cx="30" cy="26" r="2" fill="currentColor" opacity="0.3"/><path d="M16 26 L32 26" stroke="currentColor" stroke-width="1" stroke-dasharray="2 2" opacity="0.5"/></symbol><symbol viewBox="0 0 48 48" fill="none"><title>식사 계획 없음</title><ellipse cx="24" cy="28" rx="14" ry="8" fill="currentColor" opacity="0.1" stroke="currentColor" stroke-width="2"/><path d="M14 20 L14 16 M12 20 L12 16 M16 20 L16 16" stroke="currentColor" stroke-width="1.5" stroke-linecap="round"/><path d="M34 16 L34 20" stroke="currentColor" stroke-width="2" stroke-linecap="round"/><path d="M32 18 L36 18" stroke="currentColor" stroke-width="1.5" stroke-linecap="round"/></symbol><symbol viewBox="0 0 24 24" fill="none"><title>로딩 중</title><circle cx="12" cy="12" r="9" fill="none" stroke="currentColor" stroke-width="2" stroke-dasharray="14 6" stroke-linecap="round"><animateTransform attributeName="transform" type="rotate" values="0 12 12;360 12 12" dur="1s" repeatCount="indefinite"/></circle></symbol></defs></svg>