<svg xmlns="http://www.w3.org/2000/svg" style="display: none;"><defs><symbol id="potato-success" viewBox="0 0 24 24" fill="none"><title>기쁜 감자</title><ellipse cx="12" cy="13" rx="7" ry="8" fill="currentColor" opacity="0.8" stroke="currentColor" stroke-width="1.5"/><circle cx="8" cy="10" r="0.8" fill="currentColor" opacity="0.3"/><circle cx="16" cy="11" r="0.6" fill="currentColor" opacity="0.3"/><circle cx="10" cy="18" r="0.7" fill="currentColor" opacity="0.3"/><path d="M8.5 10.5 Q9.5 9.5 10.5 10.5" stroke="currentColor" stroke-width="1.5" fill="none" stroke-linecap="round"/><path d="M13.5 10.5 Q14.5 9.5 15.5 10.5" stroke="currentColor" stroke-width="1.5" fill="none" stroke-linecap="round"/><path d="M9 14.5 Q12 17 15 14.5" stroke="currentColor" stroke-width="1.5" fill="none" stroke-linecap="round"/></symbol><symbol id="potato-neutral" viewBox="0 0 24 24" fill="none"><title>평범한 감자</title><ellipse cx="12" cy="13" rx="7" ry="8" fill="currentColor" opacity="0.8" stroke="currentColor" stroke-width="1.5"/><circle cx="8" cy="10" r="0.8" fill="currentColor" opacity="0.3"/><circle cx="16" cy="11" r="0.6" fill="currentColor" opacity="0.3"/><circle cx="10" cy="18" r="0.7" fill="currentColor" opacity="0.3"/><circle cx="9.5" cy="10.5" r="1" fill="white"/><circle cx="14.5" cy="10.5" r="1" fill="white"/><circle cx="9.5" cy="10.5" r="0.5" fill="currentColor"/><circle cx="14.5" cy="10.5" r="0.5" fill="currentColor"/><line x1="10.5" y1="15" x2="13.5" y2="15" stroke="currentColor" stroke-width="1.5" stroke-linecap="round"/></symbol><symbol id="rabbit-success" viewBox="0 0 24 24" fill="none"><title>활기찬 토끼</title><ellipse cx="9" cy="4.5" rx="1.5" ry="4" fill="currentColor" opacity="0.6" stroke="currentColor" stroke-width="1"/><ellipse cx="15" cy="4.5" rx="1.5" ry="4" fill="currentColor" opacity="0.6" stroke="currentColor" stroke-width="1"/><ellipse cx="9" cy="4.5" rx="0.8" ry="2.5" fill="currentColor" opacity="0.3"/><ellipse cx="15" cy="4.5" rx="0.8" ry="2.5" fill="currentColor" opacity="0.3"/><circle cx="12" cy="14" r="6.5" fill="currentColor" opacity="0.8" stroke="currentColor" stroke-width="1"/><path d="M8.5 11.5 Q9.5 10.5 10.5 11.5" stroke="currentColor" stroke-width="1.5" fill="none" stroke-linecap="round"/><path d="M13.5 11.5 Q14.5 10.5 15.5 11.5" stroke="currentColor" stroke-width="1.5" fill="none" stroke-linecap="round"/><path d="M12 14.5 L11.5 15.5 M12 14.5 L12.5 15.5" stroke="currentColor" stroke-width="1.2" stroke-linecap="round"/><path d="M9.5 16 Q12 18.5 14.5 16" stroke="currentColor" stroke-width="1.5" fill="none" stroke-linecap="round"/></symbol><symbol id="rabbit-neutral" viewBox="0 0 24 24" fill="none"><title>평범한 토끼</title><ellipse cx="9.5" cy="5" rx="1.5" ry="4" fill="currentColor" opacity="0.6" stroke="currentColor" stroke-width="1"/><ellipse cx="14.5" cy="5" rx="1.5" ry="4" fill="currentColor" opacity="0.6" stroke="currentColor" stroke-width="1"/><ellipse cx="9.5" cy="5" rx="0.8" ry="2.5" fill="currentColor" opacity="0.3"/><ellipse cx="14.5" cy="5" rx="0.8" ry="2.5" fill="currentColor" opacity="0.3"/><circle cx="12" cy="14" r="6.5" fill="currentColor" opacity="0.8" stroke="currentColor" stroke-width="1"/><circle cx="9.5" cy="11.5" r="1" fill="white"/><circle cx="14.5" cy="11.5" r="1" fill="white"/><circle cx="9.5" cy="11.5" r="0.5" fill="currentColor"/><circle cx="14.5" cy="11.5" r="0.5" fill="currentColor"/><path d="M12 14.5 L11.5 15.5 M12 14.5 L12.5 15.5" stroke="currentColor" stroke-width="1.2" stroke-linecap="round"/><line x1="10.5" y1="16" x2="13.5" y2="16" stroke="currentColor" stroke-width="1.5" stroke-linecap="round"/></symbol></defs></svg>