<svg width="24" height="24" viewBox="0 0 24 24" fill="none" xmlns="http://www.w3.org/2000/svg">
  <title>놀란 토끼</title>
  <!-- 토끼 귀 (뒤로 눕혀짐) -->
  <ellipse cx="8" cy="8" rx="1.5" ry="4" fill="#E0E0E0" stroke="#808080" stroke-width="1" transform="rotate(-30 8 8)"/>
  <ellipse cx="16" cy="8" rx="1.5" ry="4" fill="#E0E0E0" stroke="#808080" stroke-width="1" transform="rotate(30 16 8)"/>
  <ellipse cx="8" cy="8" rx="0.8" ry="2.5" fill="#FFB6C1" opacity="0.5" transform="rotate(-30 8 8)"/>
  <ellipse cx="16" cy="8" rx="0.8" ry="2.5" fill="#FFB6C1" opacity="0.5" transform="rotate(30 16 8)"/>
  
  <!-- 토끼 얼굴 -->
  <circle cx="12" cy="14" r="6.5" fill="#E0E0E0" stroke="#808080" stroke-width="1"/>
  
  <!-- 놀란 큰 눈 -->
  <circle cx="9.5" cy="11.5" r="1.8" fill="white" stroke="#333" stroke-width="0.5"/>
  <circle cx="14.5" cy="11.5" r="1.8" fill="white" stroke="#333" stroke-width="0.5"/>
  <circle cx="9.5" cy="11.5" r="1" fill="#333"/>
  <circle cx="14.5" cy="11.5" r="1" fill="#333"/>
  
  <!-- 코 -->
  <path d="M12 14.5 L11.5 15.5 M12 14.5 L12.5 15.5" stroke="#808080" stroke-width="1.2" stroke-linecap="round"/>
  
  <!-- 놀란 입 (타원형) -->
  <ellipse cx="12" cy="17" rx="1.2" ry="1.8" fill="none" stroke="#808080" stroke-width="1.5"/>
  
  <!-- 당황 표시 (땀방울) -->
  <circle cx="16.5" cy="10" r="0.8" fill="#87CEEB" opacity="0.7"/>
  <path d="M16.5 9.2 Q16.2 8.8 16.5 8.4" stroke="#4682B4" stroke-width="0.5" fill="none"/>
</svg>