<svg width="24" height="24" viewBox="0 0 24 24" fill="none" xmlns="http://www.w3.org/2000/svg">
  <title>경계하는 토끼</title>
  <!-- 토끼 귀 (앞으로 경계) -->
  <ellipse cx="9" cy="6.5" rx="1.5" ry="4" fill="#E0E0E0" stroke="#808080" stroke-width="1" transform="rotate(-10 9 6.5)"/>
  <ellipse cx="15" cy="6.5" rx="1.5" ry="4" fill="#E0E0E0" stroke="#808080" stroke-width="1" transform="rotate(10 15 6.5)"/>
  <ellipse cx="9" cy="6.5" rx="0.8" ry="2.5" fill="#FFB6C1" opacity="0.5" transform="rotate(-10 9 6.5)"/>
  <ellipse cx="15" cy="6.5" rx="0.8" ry="2.5" fill="#FFB6C1" opacity="0.5" transform="rotate(10 15 6.5)"/>
  
  <!-- 토끼 얼굴 -->
  <circle cx="12" cy="14" r="6.5" fill="#E0E0E0" stroke="#808080" stroke-width="1"/>
  
  <!-- 경계하는 눈썹 -->
  <path d="M8.5 10.5 L10.5 11" stroke="#808080" stroke-width="1.2" stroke-linecap="round"/>
  <path d="M15.5 10.5 L13.5 11" stroke="#808080" stroke-width="1.2" stroke-linecap="round"/>
  
  <!-- 눈 -->
  <circle cx="9.5" cy="12" r="1.2" fill="white"/>
  <circle cx="14.5" cy="12" r="1.2" fill="white"/>
  <circle cx="9.5" cy="12" r="0.6" fill="#333"/>
  <circle cx="14.5" cy="12" r="0.6" fill="#333"/>
  
  <!-- 코 -->
  <path d="M12 14.5 L11.5 15.5 M12 14.5 L12.5 15.5" stroke="#808080" stroke-width="1.2" stroke-linecap="round"/>
  
  <!-- 작은 입 (경계) -->
  <circle cx="12" cy="17" r="0.8" fill="none" stroke="#808080" stroke-width="1.2"/>
</svg>