<svg width="24" height="24" viewBox="0 0 24 24" fill="none" xmlns="http://www.w3.org/2000/svg">
  <title>사색하는 토끼</title>
  <!-- 토끼 귀 (한쪽 내려짐) -->
  <ellipse cx="9" cy="6" rx="1.5" ry="4" fill="#E0E0E0" stroke="#808080" stroke-width="1"/>
  <ellipse cx="15" cy="7.5" rx="1.5" ry="4" fill="#E0E0E0" stroke="#808080" stroke-width="1" transform="rotate(25 15 7.5)"/>
  <ellipse cx="9" cy="6" rx="0.8" ry="2.5" fill="#FFB6C1" opacity="0.5"/>
  <ellipse cx="15" cy="7.5" rx="0.8" ry="2.5" fill="#FFB6C1" opacity="0.5" transform="rotate(25 15 7.5)"/>
  
  <!-- 토끼 얼굴 -->
  <circle cx="12" cy="14" r="6.5" fill="#E0E0E0" stroke="#808080" stroke-width="1"/>
  
  <!-- 사색하는 눈 (한쪽 감음) -->
  <path d="M8.5 12 L10.5 12" stroke="#333" stroke-width="1.5" stroke-linecap="round"/>
  <circle cx="14.5" cy="12" r="1.2" fill="white"/>
  <circle cx="14.5" cy="12" r="0.6" fill="#333"/>
  
  <!-- 코 -->
  <path d="M12 14.5 L11.5 15.5 M12 14.5 L12.5 15.5" stroke="#808080" stroke-width="1.2" stroke-linecap="round"/>
  
  <!-- 사색하는 입 -->
  <path d="M11 16.5 Q12 17 13 16.5" stroke="#808080" stroke-width="1.2" fill="none" stroke-linecap="round"/>
  
  <!-- 생각 구름 -->
  <g opacity="0.6">
    <circle cx="17" cy="9" r="1" fill="white" stroke="#B0B0B0" stroke-width="0.5"/>
    <circle cx="18.5" cy="7.5" r="0.7" fill="white" stroke="#B0B0B0" stroke-width="0.5"/>
    <circle cx="19.5" cy="6" r="0.5" fill="white" stroke="#B0B0B0" stroke-width="0.5"/>
  </g>
</svg>